<svg xmlns="http://www.w3.org/2000/svg" width="800" height="260" viewBox="0 0 800 260">
<rect width="800" height="260" fill="#f7f4ec"/><text x="20" y="28" font-family="sans-serif" font-size="18">hairpin seed 17 — off_track</text>
<line x1="20" y1="150" x2="760" y2="150" stroke="#222" stroke-width="18" opacity=".15"/><line x1="20" y1="150" x2="760" y2="150" stroke="#222" stroke-width="2" stroke-dasharray="8 7"/>
<polyline points="20.00,150.00 20.00,150.00 20.00,150.14 20.00,150.42 20.00,150.83 20.00,151.38 20.00,152.07 20.00,152.90 20.00,153.86 20.00,154.95 21.80,154.34 21.80,153.96 21.80,154.05 21.80,154.72 21.80,155.87 21.80,157.39 23.60,157.49 23.60,157.80 23.60,158.71 23.60,160.16 25.40,160.85 25.40,161.42 25.40,162.61 27.20,163.95 27.20,164.48 27.20,165.67 29.00,166.97 29.00,167.70 29.00,169.10 30.80,170.05 30.80,171.16 32.60,172.48 32.60,173.42 34.40,174.90 34.40,175.75 36.20,177.24 36.20,178.09 38.00,179.51 38.00,180.45 39.80,181.72 39.80,182.81 41.60,183.91 41.60,185.23 43.40,186.12 45.20,187.28 45.20,188.41 47.00,189.31 48.80,190.38 48.80,191.49 50.60,192.28" fill="none" stroke="#c84a3d" stroke-width="3"/><circle cx="20" cy="150" r="6" fill="#2457a7"/><circle cx="50.60" cy="192.28" r="7" fill="#c84a3d"/>
<text x="20" y="235" font-family="sans-serif" font-size="14">score 18.07</text></svg>