<svg xmlns="http://www.w3.org/2000/svg" version="1.1" width="1000" height="760" viewBox="0 0 1000 760">
<title>Robot Race track view: oval, seed 29</title>
<desc>Exact track, recorded trajectory, robot snapshots, and terminal events for a off_track trial.</desc>
<metadata id="robotrace-metadata">{&quot;adapter_version&quot;:&quot;robottracesim-native-v1&quot;,&quot;condition&quot;:&quot;control&quot;,&quot;event_steps&quot;:{&quot;off-track&quot;:[110]},&quot;experiment&quot;:&quot;race-5&quot;,&quot;iteration&quot;:1,&quot;package_hash&quot;:&quot;de3ae629ed725288c8ada82f02e0d818ea1a42ce03bcca623b95437aa3dd5330&quot;,&quot;renderer_version&quot;:&quot;track-view-svg-v1&quot;,&quot;result_hash&quot;:&quot;89a25260ae18095561f1adbe5fbbde90e4c669d806ab90ff47fa8f073abfc3d6&quot;,&quot;run_id&quot;:&quot;bf20f7ed6957861909fe9f5c2dbc95fc9e64b969e30cf39d5af8c92dd671f3e4&quot;,&quot;schema_version&quot;:&quot;robotrace-track-view-v1&quot;,&quot;score&quot;:127.6811,&quot;seed&quot;:29,&quot;simulator_version&quot;:&quot;robottracesim-native-v1&quot;,&quot;snapshot_steps&quot;:{&quot;25%&quot;:0,&quot;50%&quot;:0,&quot;75%&quot;:0,&quot;start&quot;:0,&quot;terminal&quot;:110},&quot;telemetry_hash&quot;:&quot;81d6af17fdaaae10241202aaea8e11071667a85ed04ea7ca6172afc9b9bff281&quot;,&quot;termination_reason&quot;:&quot;off_track&quot;,&quot;track&quot;:&quot;oval&quot;,&quot;track_hash&quot;:&quot;e41c6f4de5f90c354afa9addb4ab4b47ace6b75a5311928bdfbf63eb2456e4eb&quot;,&quot;view_transform&quot;:{&quot;offset_x&quot;:85.585586,&quot;offset_y&quot;:368.0,&quot;scale&quot;:0.207207207,&quot;y_inverted&quot;:true},&quot;world_bounds_mm&quot;:{&quot;max_x&quot;:4220.0,&quot;max_y&quot;:312.5,&quot;min_x&quot;:-220.0,&quot;min_y&quot;:-312.5}}</metadata>
<defs><marker id="direction-arrow" viewBox="0 0 10 10" refX="8" refY="5" markerWidth="7" markerHeight="7" orient="auto-start-reverse"><path d="M 0 0 L 10 5 L 0 10 z" fill="#30343b"/></marker><marker id="heading-arrow" viewBox="0 0 10 10" refX="8" refY="5" markerWidth="5" markerHeight="5" orient="auto"><path d="M 0 0 L 10 5 L 0 10 z" fill="#111"/></marker></defs>
<g id="background"><rect width="1000" height="760" fill="#f8f5ed"/><rect x="20" y="92" width="960" height="546" rx="8" fill="#fff" stroke="#d7d2c8"/><text x="24" y="30" font-family="sans-serif" font-size="18" font-weight="700">Robot Race trial</text><text x="24" y="55" font-family="sans-serif" font-size="13">control · iteration 1 · oval · seed 29 · off_track · score 127.6811 · progress 0.0% · simulated 1.11s</text><text x="24" y="76" font-family="monospace" font-size="10">run ID: bf20f7ed6957861909fe9f5c2dbc95fc9e64b969e30cf39d5af8c92dd671f3e4</text></g>
<g id="track-envelope"><polyline points="85.586,368.000 87.658,367.699 89.730,367.398 91.802,367.097 93.874,366.797 95.946,366.496 98.018,366.196 100.090,365.897 102.162,365.598 104.234,365.299 106.306,365.002 108.378,364.705 110.450,364.409 112.523,364.113 114.595,363.819 116.667,363.526 118.739,363.233 120.811,362.942 122.883,362.653 124.955,362.364 127.027,362.077 129.099,361.792 131.171,361.508 133.243,361.225 135.315,360.944 137.387,360.665 139.459,360.388 141.532,360.113 143.604,359.839 145.676,359.568 147.748,359.299 149.820,359.031 151.892,358.766 153.964,358.504 156.036,358.243 158.108,357.985 160.180,357.730 162.252,357.477 164.324,357.227 166.396,356.979 168.468,356.734 170.541,356.492 172.613,356.253 174.685,356.016 176.757,355.783 178.829,355.552 180.901,355.325 182.973,355.101 185.045,354.880 187.117,354.662 189.189,354.447 191.261,354.236 193.333,354.028 195.405,353.824 197.477,353.623 199.550,353.426 201.622,353.232 203.694,353.042 205.766,352.855 207.838,352.673 209.910,352.494 211.982,352.319 214.054,352.148 216.126,351.980 218.198,351.817 220.270,351.658 222.342,351.502 224.414,351.351 226.486,351.204 228.559,351.061 230.631,350.922 232.703,350.788 234.775,350.657 236.847,350.531 238.919,350.410 240.991,350.292 243.063,350.179 245.135,350.071 247.207,349.966 249.279,349.867 251.351,349.771 253.423,349.681 255.495,349.594 257.568,349.513 259.640,349.435 261.712,349.363 263.784,349.295 265.856,349.232 267.928,349.173 270.000,349.119 272.072,349.069 274.144,349.025 276.216,348.984 278.288,348.949 280.360,348.918 282.432,348.892 284.505,348.871 286.577,348.855 288.649,348.843 290.721,348.836 292.793,348.833 294.865,348.836 296.937,348.843 299.009,348.855 301.081,348.871 303.153,348.892 305.225,348.918 307.297,348.949 309.369,348.984 311.441,349.025 313.514,349.069 315.586,349.119 317.658,349.173 319.730,349.232 321.802,349.295 323.874,349.363 325.946,349.435 328.018,349.513 330.090,349.594 332.162,349.681 334.234,349.771 336.306,349.867 338.378,349.966 340.450,350.071 342.523,350.179 344.595,350.292 346.667,350.410 348.739,350.531 350.811,350.657 352.883,350.788 354.955,350.922 357.027,351.061 359.099,351.204 361.171,351.351 363.243,351.502 365.315,351.658 367.387,351.817 369.459,351.980 371.532,352.148 373.604,352.319 375.676,352.494 377.748,352.673 379.820,352.855 381.892,353.042 383.964,353.232 386.036,353.426 388.108,353.623 390.180,353.824 392.252,354.028 394.324,354.236 396.396,354.447 398.468,354.662 400.541,354.880 402.613,355.101 404.685,355.325 406.757,355.552 408.829,355.783 410.901,356.016 412.973,356.253 415.045,356.492 417.117,356.734 419.189,356.979 421.261,357.227 423.333,357.477 425.405,357.730 427.477,357.985 429.550,358.243 431.622,358.504 433.694,358.766 435.766,359.031 437.838,359.299 439.910,359.568 441.982,359.839 444.054,360.113 446.126,360.388 448.198,360.665 450.270,360.944 452.342,361.225 454.414,361.508 456.486,361.792 458.559,362.077 460.631,362.364 462.703,362.653 464.775,362.942 466.847,363.233 468.919,363.526 470.991,363.819 473.063,364.113 475.135,364.409 477.207,364.705 479.279,365.002 481.351,365.299 483.423,365.598 485.495,365.897 487.568,366.196 489.640,366.496 491.712,366.797 493.784,367.097 495.856,367.398 497.928,367.699 500.000,368.000 502.072,368.301 504.144,368.602 506.216,368.903 508.288,369.203 510.360,369.504 512.432,369.804 514.505,370.103 516.577,370.402 518.649,370.701 520.721,370.998 522.793,371.295 524.865,371.591 526.937,371.887 529.009,372.181 531.081,372.474 533.153,372.767 535.225,373.058 537.297,373.347 539.369,373.636 541.441,373.923 543.514,374.208 545.586,374.492 547.658,374.775 549.730,375.056 551.802,375.335 553.874,375.612 555.946,375.887 558.018,376.161 560.090,376.432 562.162,376.701 564.234,376.969 566.306,377.234 568.378,377.496 570.450,377.757 572.523,378.015 574.595,378.270 576.667,378.523 578.739,378.773 580.811,379.021 582.883,379.266 584.955,379.508 587.027,379.747 589.099,379.984 591.171,380.217 593.243,380.448 595.315,380.675 597.387,380.899 599.459,381.120 601.532,381.338 603.604,381.553 605.676,381.764 607.748,381.972 609.820,382.176 611.892,382.377 613.964,382.574 616.036,382.768 618.108,382.958 620.180,383.145 622.252,383.327 624.324,383.506 626.396,383.681 628.468,383.852 630.541,384.020 632.613,384.183 634.685,384.342 636.757,384.498 638.829,384.649 640.901,384.796 642.973,384.939 645.045,385.078 647.117,385.212 649.189,385.343 651.261,385.469 653.333,385.590 655.405,385.708 657.477,385.821 659.550,385.929 661.622,386.034 663.694,386.133 665.766,386.229 667.838,386.319 669.910,386.406 671.982,386.487 674.054,386.565 676.126,386.637 678.198,386.705 680.270,386.768 682.342,386.827 684.414,386.881 686.486,386.931 688.559,386.975 690.631,387.016 692.703,387.051 694.775,387.082 696.847,387.108 698.919,387.129 700.991,387.145 703.063,387.157 705.135,387.164 707.207,387.167 709.279,387.164 711.351,387.157 713.423,387.145 715.495,387.129 717.568,387.108 719.640,387.082 721.712,387.051 723.784,387.016 725.856,386.975 727.928,386.931 730.000,386.881 732.072,386.827 734.144,386.768 736.216,386.705 738.288,386.637 740.360,386.565 742.432,386.487 744.505,386.406 746.577,386.319 748.649,386.229 750.721,386.133 752.793,386.034 754.865,385.929 756.937,385.821 759.009,385.708 761.081,385.590 763.153,385.469 765.225,385.343 767.297,385.212 769.369,385.078 771.441,384.939 773.514,384.796 775.586,384.649 777.658,384.498 779.730,384.342 781.802,384.183 783.874,384.020 785.946,383.852 788.018,383.681 790.090,383.506 792.162,383.327 794.234,383.145 796.306,382.958 798.378,382.768 800.450,382.574 802.523,382.377 804.595,382.176 806.667,381.972 808.739,381.764 810.811,381.553 812.883,381.338 814.955,381.120 817.027,380.899 819.099,380.675 821.171,380.448 823.243,380.217 825.315,379.984 827.387,379.747 829.459,379.508 831.532,379.266 833.604,379.021 835.676,378.773 837.748,378.523 839.820,378.270 841.892,378.015 843.964,377.757 846.036,377.496 848.108,377.234 850.180,376.969 852.252,376.701 854.324,376.432 856.396,376.161 858.468,375.887 860.541,375.612 862.613,375.335 864.685,375.056 866.757,374.775 868.829,374.492 870.901,374.208 872.973,373.923 875.045,373.636 877.117,373.347 879.189,373.058 881.261,372.767 883.333,372.474 885.405,372.181 887.477,371.887 889.550,371.591 891.622,371.295 893.694,370.998 895.766,370.701 897.838,370.402 899.910,370.103 901.982,369.804 904.054,369.504 906.126,369.203 908.198,368.903 910.270,368.602 912.342,368.301 914.414,368.000" fill="none" stroke="#c4c7ca" stroke-width="5.180" stroke-linecap="round" stroke-linejoin="round"/></g>
<g id="track-centreline"><polyline points="85.586,368.000 87.658,367.699 89.730,367.398 91.802,367.097 93.874,366.797 95.946,366.496 98.018,366.196 100.090,365.897 102.162,365.598 104.234,365.299 106.306,365.002 108.378,364.705 110.450,364.409 112.523,364.113 114.595,363.819 116.667,363.526 118.739,363.233 120.811,362.942 122.883,362.653 124.955,362.364 127.027,362.077 129.099,361.792 131.171,361.508 133.243,361.225 135.315,360.944 137.387,360.665 139.459,360.388 141.532,360.113 143.604,359.839 145.676,359.568 147.748,359.299 149.820,359.031 151.892,358.766 153.964,358.504 156.036,358.243 158.108,357.985 160.180,357.730 162.252,357.477 164.324,357.227 166.396,356.979 168.468,356.734 170.541,356.492 172.613,356.253 174.685,356.016 176.757,355.783 178.829,355.552 180.901,355.325 182.973,355.101 185.045,354.880 187.117,354.662 189.189,354.447 191.261,354.236 193.333,354.028 195.405,353.824 197.477,353.623 199.550,353.426 201.622,353.232 203.694,353.042 205.766,352.855 207.838,352.673 209.910,352.494 211.982,352.319 214.054,352.148 216.126,351.980 218.198,351.817 220.270,351.658 222.342,351.502 224.414,351.351 226.486,351.204 228.559,351.061 230.631,350.922 232.703,350.788 234.775,350.657 236.847,350.531 238.919,350.410 240.991,350.292 243.063,350.179 245.135,350.071 247.207,349.966 249.279,349.867 251.351,349.771 253.423,349.681 255.495,349.594 257.568,349.513 259.640,349.435 261.712,349.363 263.784,349.295 265.856,349.232 267.928,349.173 270.000,349.119 272.072,349.069 274.144,349.025 276.216,348.984 278.288,348.949 280.360,348.918 282.432,348.892 284.505,348.871 286.577,348.855 288.649,348.843 290.721,348.836 292.793,348.833 294.865,348.836 296.937,348.843 299.009,348.855 301.081,348.871 303.153,348.892 305.225,348.918 307.297,348.949 309.369,348.984 311.441,349.025 313.514,349.069 315.586,349.119 317.658,349.173 319.730,349.232 321.802,349.295 323.874,349.363 325.946,349.435 328.018,349.513 330.090,349.594 332.162,349.681 334.234,349.771 336.306,349.867 338.378,349.966 340.450,350.071 342.523,350.179 344.595,350.292 346.667,350.410 348.739,350.531 350.811,350.657 352.883,350.788 354.955,350.922 357.027,351.061 359.099,351.204 361.171,351.351 363.243,351.502 365.315,351.658 367.387,351.817 369.459,351.980 371.532,352.148 373.604,352.319 375.676,352.494 377.748,352.673 379.820,352.855 381.892,353.042 383.964,353.232 386.036,353.426 388.108,353.623 390.180,353.824 392.252,354.028 394.324,354.236 396.396,354.447 398.468,354.662 400.541,354.880 402.613,355.101 404.685,355.325 406.757,355.552 408.829,355.783 410.901,356.016 412.973,356.253 415.045,356.492 417.117,356.734 419.189,356.979 421.261,357.227 423.333,357.477 425.405,357.730 427.477,357.985 429.550,358.243 431.622,358.504 433.694,358.766 435.766,359.031 437.838,359.299 439.910,359.568 441.982,359.839 444.054,360.113 446.126,360.388 448.198,360.665 450.270,360.944 452.342,361.225 454.414,361.508 456.486,361.792 458.559,362.077 460.631,362.364 462.703,362.653 464.775,362.942 466.847,363.233 468.919,363.526 470.991,363.819 473.063,364.113 475.135,364.409 477.207,364.705 479.279,365.002 481.351,365.299 483.423,365.598 485.495,365.897 487.568,366.196 489.640,366.496 491.712,366.797 493.784,367.097 495.856,367.398 497.928,367.699 500.000,368.000 502.072,368.301 504.144,368.602 506.216,368.903 508.288,369.203 510.360,369.504 512.432,369.804 514.505,370.103 516.577,370.402 518.649,370.701 520.721,370.998 522.793,371.295 524.865,371.591 526.937,371.887 529.009,372.181 531.081,372.474 533.153,372.767 535.225,373.058 537.297,373.347 539.369,373.636 541.441,373.923 543.514,374.208 545.586,374.492 547.658,374.775 549.730,375.056 551.802,375.335 553.874,375.612 555.946,375.887 558.018,376.161 560.090,376.432 562.162,376.701 564.234,376.969 566.306,377.234 568.378,377.496 570.450,377.757 572.523,378.015 574.595,378.270 576.667,378.523 578.739,378.773 580.811,379.021 582.883,379.266 584.955,379.508 587.027,379.747 589.099,379.984 591.171,380.217 593.243,380.448 595.315,380.675 597.387,380.899 599.459,381.120 601.532,381.338 603.604,381.553 605.676,381.764 607.748,381.972 609.820,382.176 611.892,382.377 613.964,382.574 616.036,382.768 618.108,382.958 620.180,383.145 622.252,383.327 624.324,383.506 626.396,383.681 628.468,383.852 630.541,384.020 632.613,384.183 634.685,384.342 636.757,384.498 638.829,384.649 640.901,384.796 642.973,384.939 645.045,385.078 647.117,385.212 649.189,385.343 651.261,385.469 653.333,385.590 655.405,385.708 657.477,385.821 659.550,385.929 661.622,386.034 663.694,386.133 665.766,386.229 667.838,386.319 669.910,386.406 671.982,386.487 674.054,386.565 676.126,386.637 678.198,386.705 680.270,386.768 682.342,386.827 684.414,386.881 686.486,386.931 688.559,386.975 690.631,387.016 692.703,387.051 694.775,387.082 696.847,387.108 698.919,387.129 700.991,387.145 703.063,387.157 705.135,387.164 707.207,387.167 709.279,387.164 711.351,387.157 713.423,387.145 715.495,387.129 717.568,387.108 719.640,387.082 721.712,387.051 723.784,387.016 725.856,386.975 727.928,386.931 730.000,386.881 732.072,386.827 734.144,386.768 736.216,386.705 738.288,386.637 740.360,386.565 742.432,386.487 744.505,386.406 746.577,386.319 748.649,386.229 750.721,386.133 752.793,386.034 754.865,385.929 756.937,385.821 759.009,385.708 761.081,385.590 763.153,385.469 765.225,385.343 767.297,385.212 769.369,385.078 771.441,384.939 773.514,384.796 775.586,384.649 777.658,384.498 779.730,384.342 781.802,384.183 783.874,384.020 785.946,383.852 788.018,383.681 790.090,383.506 792.162,383.327 794.234,383.145 796.306,382.958 798.378,382.768 800.450,382.574 802.523,382.377 804.595,382.176 806.667,381.972 808.739,381.764 810.811,381.553 812.883,381.338 814.955,381.120 817.027,380.899 819.099,380.675 821.171,380.448 823.243,380.217 825.315,379.984 827.387,379.747 829.459,379.508 831.532,379.266 833.604,379.021 835.676,378.773 837.748,378.523 839.820,378.270 841.892,378.015 843.964,377.757 846.036,377.496 848.108,377.234 850.180,376.969 852.252,376.701 854.324,376.432 856.396,376.161 858.468,375.887 860.541,375.612 862.613,375.335 864.685,375.056 866.757,374.775 868.829,374.492 870.901,374.208 872.973,373.923 875.045,373.636 877.117,373.347 879.189,373.058 881.261,372.767 883.333,372.474 885.405,372.181 887.477,371.887 889.550,371.591 891.622,371.295 893.694,370.998 895.766,370.701 897.838,370.402 899.910,370.103 901.982,369.804 904.054,369.504 906.126,369.203 908.198,368.903 910.270,368.602 912.342,368.301 914.414,368.000" fill="none" stroke="#30343b" stroke-width="1.300" stroke-dasharray="6 5"/><line x1="116.667" y1="363.526" x2="147.748" y2="359.299" stroke="#30343b" stroke-width="2" marker-end="url(#direction-arrow)"/></g>
<g id="start-finish"><line x1="85.586" y1="353.000" x2="85.586" y2="383.000" stroke="#2364aa" stroke-width="4"/><text x="91.586" y="350.000" font-family="sans-serif" font-size="11">START</text><line x1="914.414" y1="353.000" x2="914.414" y2="383.000" stroke="#111" stroke-width="4" stroke-dasharray="4 3"/><text x="872.414" y="350.000" font-family="sans-serif" font-size="11">FINISH</text></g>
<g id="trajectory"><line data-step="1" data-error-band="green" x1="85.586" y1="368.000" x2="85.586" y2="368.000" stroke="#167d6b" stroke-width="2.600" stroke-linecap="round"/><line data-step="2" data-error-band="green" x1="85.586" y1="368.000" x2="85.586" y2="368.000" stroke="#167d6b" stroke-width="2.600" stroke-linecap="round"/><line data-step="3" data-error-band="green" x1="85.586" y1="368.000" x2="85.586" y2="368.000" stroke="#167d6b" stroke-width="2.600" stroke-linecap="round"/><line data-step="4" data-error-band="green" x1="85.586" y1="368.000" x2="85.586" y2="368.000" stroke="#167d6b" stroke-width="2.600" stroke-linecap="round"/><line data-step="5" data-error-band="green" x1="85.586" y1="368.000" x2="85.586" y2="368.000" stroke="#167d6b" stroke-width="2.600" stroke-linecap="round"/><line data-step="6" data-error-band="green" x1="85.586" y1="368.000" x2="85.586" y2="368.000" stroke="#167d6b" stroke-width="2.600" stroke-linecap="round"/><line data-step="7" data-error-band="green" x1="85.586" y1="368.000" x2="85.586" y2="368.000" stroke="#167d6b" stroke-width="2.600" stroke-linecap="round"/><line data-step="8" data-error-band="green" x1="85.586" y1="368.000" x2="85.586" y2="368.000" stroke="#167d6b" stroke-width="2.600" stroke-linecap="round"/><line data-step="9" data-error-band="green" x1="85.586" y1="368.000" x2="85.586" y2="368.000" stroke="#167d6b" stroke-width="2.600" stroke-linecap="round"/><line data-step="10" data-error-band="green" x1="85.586" y1="368.000" x2="85.586" y2="368.000" stroke="#167d6b" stroke-width="2.600" stroke-linecap="round"/><line data-step="11" data-error-band="green" x1="85.586" y1="368.000" x2="85.586" y2="368.000" stroke="#167d6b" stroke-width="2.600" stroke-linecap="round"/><line data-step="12" data-error-band="green" x1="85.586" y1="368.000" x2="85.586" y2="368.000" stroke="#167d6b" stroke-width="2.600" stroke-linecap="round"/><line data-step="13" data-error-band="green" x1="85.586" y1="368.000" x2="85.586" y2="368.000" stroke="#167d6b" stroke-width="2.600" stroke-linecap="round"/><line data-step="14" data-error-band="green" x1="85.586" y1="368.000" x2="85.586" y2="368.000" stroke="#167d6b" stroke-width="2.600" stroke-linecap="round"/><line data-step="15" data-error-band="green" x1="85.586" y1="368.000" x2="85.586" y2="368.000" stroke="#167d6b" stroke-width="2.600" stroke-linecap="round"/><line data-step="16" data-error-band="green" x1="85.586" y1="368.000" x2="85.586" y2="368.000" stroke="#167d6b" stroke-width="2.600" stroke-linecap="round"/><line data-step="17" data-error-band="green" x1="85.586" y1="368.000" x2="85.586" y2="368.000" stroke="#167d6b" stroke-width="2.600" stroke-linecap="round"/><line data-step="18" data-error-band="green" x1="85.586" y1="368.000" x2="85.586" y2="368.000" stroke="#167d6b" stroke-width="2.600" stroke-linecap="round"/><line data-step="19" data-error-band="green" x1="85.586" y1="368.000" x2="85.586" y2="368.000" stroke="#167d6b" stroke-width="2.600" stroke-linecap="round"/><line data-step="20" data-error-band="green" x1="85.586" y1="368.000" x2="85.586" y2="368.000" stroke="#167d6b" stroke-width="2.600" stroke-linecap="round"/><line data-step="21" data-error-band="green" x1="85.586" y1="368.000" x2="85.586" y2="368.000" stroke="#167d6b" stroke-width="2.600" stroke-linecap="round"/><line data-step="22" data-error-band="green" x1="85.586" y1="368.000" x2="85.586" y2="368.000" stroke="#167d6b" stroke-width="2.600" stroke-linecap="round"/><line data-step="23" data-error-band="green" x1="85.586" y1="368.000" x2="85.586" y2="368.000" stroke="#167d6b" stroke-width="2.600" stroke-linecap="round"/><line data-step="24" data-error-band="green" x1="85.586" y1="368.000" x2="85.586" y2="368.000" stroke="#167d6b" stroke-width="2.600" stroke-linecap="round"/><line data-step="25" data-error-band="green" x1="85.586" y1="368.000" x2="85.586" y2="368.000" stroke="#167d6b" stroke-width="2.600" stroke-linecap="round"/><line data-step="26" data-error-band="green" x1="85.586" y1="368.000" x2="85.586" y2="368.000" stroke="#167d6b" stroke-width="2.600" stroke-linecap="round"/><line data-step="27" data-error-band="green" x1="85.586" y1="368.000" x2="85.586" y2="368.000" stroke="#167d6b" stroke-width="2.600" stroke-linecap="round"/><line data-step="28" data-error-band="green" x1="85.586" y1="368.000" x2="85.586" y2="368.000" stroke="#167d6b" stroke-width="2.600" stroke-linecap="round"/><line data-step="29" data-error-band="green" x1="85.586" y1="368.000" x2="85.586" y2="368.000" stroke="#167d6b" stroke-width="2.600" stroke-linecap="round"/><line data-step="30" data-error-band="green" x1="85.586" y1="368.000" x2="85.586" y2="368.000" stroke="#167d6b" stroke-width="2.600" stroke-linecap="round"/><line data-step="31" data-error-band="green" x1="85.586" y1="368.000" x2="85.586" y2="368.000" stroke="#167d6b" stroke-width="2.600" stroke-linecap="round"/><line data-step="32" data-error-band="green" x1="85.586" y1="368.000" x2="85.586" y2="368.000" stroke="#167d6b" stroke-width="2.600" stroke-linecap="round"/><line data-step="33" data-error-band="green" x1="85.586" y1="368.000" x2="85.586" y2="368.000" stroke="#167d6b" stroke-width="2.600" stroke-linecap="round"/><line data-step="34" data-error-band="green" x1="85.586" y1="368.000" x2="85.586" y2="368.000" stroke="#167d6b" stroke-width="2.600" stroke-linecap="round"/><line data-step="35" data-error-band="green" x1="85.586" y1="368.000" x2="85.586" y2="368.000" stroke="#167d6b" stroke-width="2.600" stroke-linecap="round"/><line data-step="36" data-error-band="green" x1="85.586" y1="368.000" x2="85.586" y2="368.000" stroke="#167d6b" stroke-width="2.600" stroke-linecap="round"/><line data-step="37" data-error-band="amber" x1="85.586" y1="368.000" x2="85.586" y2="368.000" stroke="#d18b00" stroke-width="2.600" stroke-linecap="round"/><line data-step="38" data-error-band="amber" x1="85.586" y1="368.000" x2="85.586" y2="368.000" stroke="#d18b00" stroke-width="2.600" stroke-linecap="round"/><line data-step="39" data-error-band="amber" x1="85.586" y1="368.000" x2="85.586" y2="368.000" stroke="#d18b00" stroke-width="2.600" stroke-linecap="round"/><line data-step="40" data-error-band="amber" x1="85.586" y1="368.000" x2="85.586" y2="368.000" stroke="#d18b00" stroke-width="2.600" stroke-linecap="round"/><line data-step="41" data-error-band="amber" x1="85.586" y1="368.000" x2="85.586" y2="368.000" stroke="#d18b00" stroke-width="2.600" stroke-linecap="round"/><line data-step="42" data-error-band="amber" x1="85.586" y1="368.000" x2="85.586" y2="368.000" stroke="#d18b00" stroke-width="2.600" stroke-linecap="round"/><line data-step="43" data-error-band="amber" x1="85.586" y1="368.000" x2="85.586" y2="368.000" stroke="#d18b00" stroke-width="2.600" stroke-linecap="round"/><line data-step="44" data-error-band="amber" x1="85.586" y1="368.000" x2="85.586" y2="368.000" stroke="#d18b00" stroke-width="2.600" stroke-linecap="round"/><line data-step="45" data-error-band="amber" x1="85.586" y1="368.000" x2="85.586" y2="368.000" stroke="#d18b00" stroke-width="2.600" stroke-linecap="round"/><line data-step="46" data-error-band="amber" x1="85.586" y1="368.000" x2="85.586" y2="368.000" stroke="#d18b00" stroke-width="2.600" stroke-linecap="round"/><line data-step="47" data-error-band="amber" x1="85.586" y1="368.000" x2="85.586" y2="368.000" stroke="#d18b00" stroke-width="2.600" stroke-linecap="round"/><line data-step="48" data-error-band="amber" x1="85.586" y1="368.000" x2="85.586" y2="368.000" stroke="#d18b00" stroke-width="2.600" stroke-linecap="round"/><line data-step="49" data-error-band="amber" x1="85.586" y1="368.000" x2="85.586" y2="368.000" stroke="#d18b00" stroke-width="2.600" stroke-linecap="round"/><line data-step="50" data-error-band="amber" x1="85.586" y1="368.000" x2="85.586" y2="368.000" stroke="#d18b00" stroke-width="2.600" stroke-linecap="round"/><line data-step="51" data-error-band="amber" x1="85.586" y1="368.000" x2="85.586" y2="368.000" stroke="#d18b00" stroke-width="2.600" stroke-linecap="round"/><line data-step="52" data-error-band="amber" x1="85.586" y1="368.000" x2="85.586" y2="368.000" stroke="#d18b00" stroke-width="2.600" stroke-linecap="round"/><line data-step="53" data-error-band="amber" x1="85.586" y1="368.000" x2="85.586" y2="368.000" stroke="#d18b00" stroke-width="2.600" stroke-linecap="round"/><line data-step="54" data-error-band="amber" x1="85.586" y1="368.000" x2="85.586" y2="368.000" stroke="#d18b00" stroke-width="2.600" stroke-linecap="round"/><line data-step="55" data-error-band="amber" x1="85.586" y1="368.000" x2="85.586" y2="368.000" stroke="#d18b00" stroke-width="2.600" stroke-linecap="round"/><line data-step="56" data-error-band="red" x1="85.586" y1="368.000" x2="85.586" y2="368.000" stroke="#d1495b" stroke-width="2.600" stroke-linecap="round"/><line data-step="57" data-error-band="red" x1="85.586" y1="368.000" x2="85.586" y2="368.000" stroke="#d1495b" stroke-width="2.600" stroke-linecap="round"/><line data-step="58" data-error-band="red" x1="85.586" y1="368.000" x2="85.586" y2="368.000" stroke="#d1495b" stroke-width="2.600" stroke-linecap="round"/><line data-step="59" data-error-band="red" x1="85.586" y1="368.000" x2="85.586" y2="368.000" stroke="#d1495b" stroke-width="2.600" stroke-linecap="round"/><line data-step="60" data-error-band="red" x1="85.586" y1="368.000" x2="85.586" y2="368.000" stroke="#d1495b" stroke-width="2.600" stroke-linecap="round"/><line data-step="61" data-error-band="red" x1="85.586" y1="368.000" x2="85.586" y2="368.000" stroke="#d1495b" stroke-width="2.600" stroke-linecap="round"/><line data-step="62" data-error-band="red" x1="85.586" y1="368.000" x2="85.586" y2="368.000" stroke="#d1495b" stroke-width="2.600" stroke-linecap="round"/><line data-step="63" data-error-band="red" x1="85.586" y1="368.000" x2="85.586" y2="368.000" stroke="#d1495b" stroke-width="2.600" stroke-linecap="round"/><line data-step="64" data-error-band="red" x1="85.586" y1="368.000" x2="85.586" y2="368.000" stroke="#d1495b" stroke-width="2.600" stroke-linecap="round"/><line data-step="65" data-error-band="red" x1="85.586" y1="368.000" x2="85.586" y2="368.000" stroke="#d1495b" stroke-width="2.600" stroke-linecap="round"/><line data-step="66" data-error-band="red" x1="85.586" y1="368.000" x2="85.586" y2="368.000" stroke="#d1495b" stroke-width="2.600" stroke-linecap="round"/><line data-step="67" data-error-band="red" x1="85.586" y1="368.000" x2="85.586" y2="368.000" stroke="#d1495b" stroke-width="2.600" stroke-linecap="round"/><line data-step="68" data-error-band="red" x1="85.586" y1="368.000" x2="85.586" y2="368.000" stroke="#d1495b" stroke-width="2.600" stroke-linecap="round"/><line data-step="69" data-error-band="red" x1="85.586" y1="368.000" x2="85.586" y2="368.000" stroke="#d1495b" stroke-width="2.600" stroke-linecap="round"/><line data-step="70" data-error-band="red" x1="85.586" y1="368.000" x2="85.586" y2="368.000" stroke="#d1495b" stroke-width="2.600" stroke-linecap="round"/><line data-step="71" data-error-band="red" x1="85.586" y1="368.000" x2="85.586" y2="368.000" stroke="#d1495b" stroke-width="2.600" stroke-linecap="round"/><line data-step="72" data-error-band="red" x1="85.586" y1="368.000" x2="85.586" y2="368.000" stroke="#d1495b" stroke-width="2.600" stroke-linecap="round"/><line data-step="73" data-error-band="red" x1="85.586" y1="368.000" x2="85.586" y2="368.000" stroke="#d1495b" stroke-width="2.600" stroke-linecap="round"/><line data-step="74" data-error-band="red" x1="85.586" y1="368.000" x2="85.586" y2="368.000" stroke="#d1495b" stroke-width="2.600" stroke-linecap="round"/><line data-step="75" data-error-band="red" x1="85.586" y1="368.000" x2="85.586" y2="368.000" stroke="#d1495b" stroke-width="2.600" stroke-linecap="round"/><line data-step="76" data-error-band="red" x1="85.586" y1="368.000" x2="85.586" y2="368.000" stroke="#d1495b" stroke-width="2.600" stroke-linecap="round"/><line data-step="77" data-error-band="red" x1="85.586" y1="368.000" x2="85.586" y2="368.000" stroke="#d1495b" stroke-width="2.600" stroke-linecap="round"/><line data-step="78" data-error-band="red" x1="85.586" y1="368.000" x2="85.586" y2="368.000" stroke="#d1495b" stroke-width="2.600" stroke-linecap="round"/><line data-step="79" data-error-band="red" x1="85.586" y1="368.000" x2="85.586" y2="368.000" stroke="#d1495b" stroke-width="2.600" stroke-linecap="round"/><line data-step="80" data-error-band="red" x1="85.586" y1="368.000" x2="85.586" y2="368.000" stroke="#d1495b" stroke-width="2.600" stroke-linecap="round"/><line data-step="81" data-error-band="red" x1="85.586" y1="368.000" x2="85.586" y2="368.000" stroke="#d1495b" stroke-width="2.600" stroke-linecap="round"/><line data-step="82" data-error-band="red" x1="85.586" y1="368.000" x2="85.586" y2="368.000" stroke="#d1495b" stroke-width="2.600" stroke-linecap="round"/><line data-step="83" data-error-band="amber" x1="85.586" y1="368.000" x2="85.586" y2="368.000" stroke="#d18b00" stroke-width="2.600" stroke-linecap="round"/><line data-step="84" data-error-band="amber" x1="85.586" y1="368.000" x2="85.586" y2="368.000" stroke="#d18b00" stroke-width="2.600" stroke-linecap="round"/><line data-step="85" data-error-band="amber" x1="85.586" y1="368.000" x2="85.586" y2="368.000" stroke="#d18b00" stroke-width="2.600" stroke-linecap="round"/><line data-step="86" data-error-band="amber" x1="85.586" y1="368.000" x2="85.586" y2="368.000" stroke="#d18b00" stroke-width="2.600" stroke-linecap="round"/><line data-step="87" data-error-band="amber" x1="85.586" y1="368.000" x2="85.586" y2="368.000" stroke="#d18b00" stroke-width="2.600" stroke-linecap="round"/><line data-step="88" data-error-band="amber" x1="85.586" y1="368.000" x2="85.586" y2="368.000" stroke="#d18b00" stroke-width="2.600" stroke-linecap="round"/><line data-step="89" data-error-band="amber" x1="85.586" y1="368.000" x2="85.586" y2="368.000" stroke="#d18b00" stroke-width="2.600" stroke-linecap="round"/><line data-step="90" data-error-band="amber" x1="85.586" y1="368.000" x2="85.586" y2="368.000" stroke="#d18b00" stroke-width="2.600" stroke-linecap="round"/><line data-step="91" data-error-band="amber" x1="85.586" y1="368.000" x2="85.586" y2="368.000" stroke="#d18b00" stroke-width="2.600" stroke-linecap="round"/><line data-step="92" data-error-band="amber" x1="85.586" y1="368.000" x2="85.586" y2="368.000" stroke="#d18b00" stroke-width="2.600" stroke-linecap="round"/><line data-step="93" data-error-band="amber" x1="85.586" y1="368.000" x2="85.586" y2="368.000" stroke="#d18b00" stroke-width="2.600" stroke-linecap="round"/><line data-step="94" data-error-band="amber" x1="85.586" y1="368.000" x2="85.586" y2="368.000" stroke="#d18b00" stroke-width="2.600" stroke-linecap="round"/><line data-step="95" data-error-band="amber" x1="85.586" y1="368.000" x2="85.586" y2="368.000" stroke="#d18b00" stroke-width="2.600" stroke-linecap="round"/><line data-step="96" data-error-band="amber" x1="85.586" y1="368.000" x2="85.586" y2="368.000" stroke="#d18b00" stroke-width="2.600" stroke-linecap="round"/><line data-step="97" data-error-band="amber" x1="85.586" y1="368.000" x2="85.586" y2="368.000" stroke="#d18b00" stroke-width="2.600" stroke-linecap="round"/><line data-step="98" data-error-band="amber" x1="85.586" y1="368.000" x2="85.586" y2="368.000" stroke="#d18b00" stroke-width="2.600" stroke-linecap="round"/><line data-step="99" data-error-band="amber" x1="85.586" y1="368.000" x2="85.586" y2="368.000" stroke="#d18b00" stroke-width="2.600" stroke-linecap="round"/><line data-step="100" data-error-band="amber" x1="85.586" y1="368.000" x2="85.586" y2="368.000" stroke="#d18b00" stroke-width="2.600" stroke-linecap="round"/><line data-step="101" data-error-band="red" x1="85.586" y1="368.000" x2="85.586" y2="368.000" stroke="#d1495b" stroke-width="2.600" stroke-linecap="round"/><line data-step="102" data-error-band="red" x1="85.586" y1="368.000" x2="85.586" y2="368.000" stroke="#d1495b" stroke-width="2.600" stroke-linecap="round"/><line data-step="103" data-error-band="red" x1="85.586" y1="368.000" x2="85.586" y2="368.000" stroke="#d1495b" stroke-width="2.600" stroke-linecap="round"/><line data-step="104" data-error-band="red" x1="85.586" y1="368.000" x2="85.586" y2="368.000" stroke="#d1495b" stroke-width="2.600" stroke-linecap="round"/><line data-step="105" data-error-band="red" x1="85.586" y1="368.000" x2="85.586" y2="368.000" stroke="#d1495b" stroke-width="2.600" stroke-linecap="round"/><line data-step="106" data-error-band="red" x1="85.586" y1="368.000" x2="85.586" y2="368.000" stroke="#d1495b" stroke-width="2.600" stroke-linecap="round"/><line data-step="107" data-error-band="red" x1="85.586" y1="368.000" x2="85.586" y2="368.000" stroke="#d1495b" stroke-width="2.600" stroke-linecap="round"/><line data-step="108" data-error-band="red" x1="85.586" y1="368.000" x2="85.586" y2="368.000" stroke="#d1495b" stroke-width="2.600" stroke-linecap="round"/><line data-step="109" data-error-band="red" x1="85.586" y1="368.000" x2="85.586" y2="368.000" stroke="#d1495b" stroke-width="2.600" stroke-linecap="round"/><line data-step="110" data-error-band="dark-red" x1="85.586" y1="368.000" x2="85.586" y2="368.000" stroke="#721c24" stroke-width="2.600" stroke-linecap="round"/></g>
<g id="robot-snapshots"><g class="robot-snapshot" data-label="start" data-step="0" transform="translate(85.586 368.000) rotate(0.000) scale(0.207)"><rect class="body" x="-110.000" y="-70.000" width="220.000" height="140.000" rx="8.000" fill="#5b67a5" fill-opacity=".18" stroke="#35406f" stroke-width="7.239"/><rect class="wheel left" x="-11.000" y="-110.000" width="22.000" height="80.000" fill="#252525"/><rect class="wheel right" x="-11.000" y="30.000" width="22.000" height="80.000" fill="#252525"/><circle class="sensor" data-sensor="S1" cx="40.000" cy="40.000" r="6.000" fill="#21a7c7" fill-opacity=".50" stroke="#07566a" stroke-width="4.826"/><circle class="sensor" data-sensor="S2" cx="50.000" cy="0.000" r="6.000" fill="#21a7c7" fill-opacity=".50" stroke="#07566a" stroke-width="4.826"/><circle class="sensor" data-sensor="S3" cx="40.000" cy="-40.000" r="6.000" fill="#21a7c7" fill-opacity=".50" stroke="#07566a" stroke-width="4.826"/><circle class="sensor" data-sensor="S4" cx="0.000" cy="20.000" r="6.000" fill="#21a7c7" fill-opacity=".50" stroke="#07566a" stroke-width="4.826"/><circle class="sensor" data-sensor="S5" cx="0.000" cy="-20.000" r="6.000" fill="#21a7c7" fill-opacity=".50" stroke="#07566a" stroke-width="4.826"/><circle class="reference-origin" cx="0" cy="0" r="14.478" fill="#fff" stroke="#111" stroke-width="4.826"/><line class="heading" x1="0" y1="0" x2="154.000" y2="0" stroke="#111" stroke-width="9.652" marker-end="url(#heading-arrow)"/></g><g class="robot-snapshot" data-label="25%" data-step="0" transform="translate(85.586 368.000) rotate(0.000) scale(0.207)"><rect class="body" x="-110.000" y="-70.000" width="220.000" height="140.000" rx="8.000" fill="#5b67a5" fill-opacity=".18" stroke="#35406f" stroke-width="7.239"/><rect class="wheel left" x="-11.000" y="-110.000" width="22.000" height="80.000" fill="#252525"/><rect class="wheel right" x="-11.000" y="30.000" width="22.000" height="80.000" fill="#252525"/><circle class="sensor" data-sensor="S1" cx="40.000" cy="40.000" r="6.000" fill="#21a7c7" fill-opacity=".50" stroke="#07566a" stroke-width="4.826"/><circle class="sensor" data-sensor="S2" cx="50.000" cy="0.000" r="6.000" fill="#21a7c7" fill-opacity=".50" stroke="#07566a" stroke-width="4.826"/><circle class="sensor" data-sensor="S3" cx="40.000" cy="-40.000" r="6.000" fill="#21a7c7" fill-opacity=".50" stroke="#07566a" stroke-width="4.826"/><circle class="sensor" data-sensor="S4" cx="0.000" cy="20.000" r="6.000" fill="#21a7c7" fill-opacity=".50" stroke="#07566a" stroke-width="4.826"/><circle class="sensor" data-sensor="S5" cx="0.000" cy="-20.000" r="6.000" fill="#21a7c7" fill-opacity=".50" stroke="#07566a" stroke-width="4.826"/><circle class="reference-origin" cx="0" cy="0" r="14.478" fill="#fff" stroke="#111" stroke-width="4.826"/><line class="heading" x1="0" y1="0" x2="154.000" y2="0" stroke="#111" stroke-width="9.652" marker-end="url(#heading-arrow)"/></g><g class="robot-snapshot" data-label="50%" data-step="0" transform="translate(85.586 368.000) rotate(0.000) scale(0.207)"><rect class="body" x="-110.000" y="-70.000" width="220.000" height="140.000" rx="8.000" fill="#5b67a5" fill-opacity=".18" stroke="#35406f" stroke-width="7.239"/><rect class="wheel left" x="-11.000" y="-110.000" width="22.000" height="80.000" fill="#252525"/><rect class="wheel right" x="-11.000" y="30.000" width="22.000" height="80.000" fill="#252525"/><circle class="sensor" data-sensor="S1" cx="40.000" cy="40.000" r="6.000" fill="#21a7c7" fill-opacity=".50" stroke="#07566a" stroke-width="4.826"/><circle class="sensor" data-sensor="S2" cx="50.000" cy="0.000" r="6.000" fill="#21a7c7" fill-opacity=".50" stroke="#07566a" stroke-width="4.826"/><circle class="sensor" data-sensor="S3" cx="40.000" cy="-40.000" r="6.000" fill="#21a7c7" fill-opacity=".50" stroke="#07566a" stroke-width="4.826"/><circle class="sensor" data-sensor="S4" cx="0.000" cy="20.000" r="6.000" fill="#21a7c7" fill-opacity=".50" stroke="#07566a" stroke-width="4.826"/><circle class="sensor" data-sensor="S5" cx="0.000" cy="-20.000" r="6.000" fill="#21a7c7" fill-opacity=".50" stroke="#07566a" stroke-width="4.826"/><circle class="reference-origin" cx="0" cy="0" r="14.478" fill="#fff" stroke="#111" stroke-width="4.826"/><line class="heading" x1="0" y1="0" x2="154.000" y2="0" stroke="#111" stroke-width="9.652" marker-end="url(#heading-arrow)"/></g><g class="robot-snapshot" data-label="75%" data-step="0" transform="translate(85.586 368.000) rotate(0.000) scale(0.207)"><rect class="body" x="-110.000" y="-70.000" width="220.000" height="140.000" rx="8.000" fill="#5b67a5" fill-opacity=".18" stroke="#35406f" stroke-width="7.239"/><rect class="wheel left" x="-11.000" y="-110.000" width="22.000" height="80.000" fill="#252525"/><rect class="wheel right" x="-11.000" y="30.000" width="22.000" height="80.000" fill="#252525"/><circle class="sensor" data-sensor="S1" cx="40.000" cy="40.000" r="6.000" fill="#21a7c7" fill-opacity=".50" stroke="#07566a" stroke-width="4.826"/><circle class="sensor" data-sensor="S2" cx="50.000" cy="0.000" r="6.000" fill="#21a7c7" fill-opacity=".50" stroke="#07566a" stroke-width="4.826"/><circle class="sensor" data-sensor="S3" cx="40.000" cy="-40.000" r="6.000" fill="#21a7c7" fill-opacity=".50" stroke="#07566a" stroke-width="4.826"/><circle class="sensor" data-sensor="S4" cx="0.000" cy="20.000" r="6.000" fill="#21a7c7" fill-opacity=".50" stroke="#07566a" stroke-width="4.826"/><circle class="sensor" data-sensor="S5" cx="0.000" cy="-20.000" r="6.000" fill="#21a7c7" fill-opacity=".50" stroke="#07566a" stroke-width="4.826"/><circle class="reference-origin" cx="0" cy="0" r="14.478" fill="#fff" stroke="#111" stroke-width="4.826"/><line class="heading" x1="0" y1="0" x2="154.000" y2="0" stroke="#111" stroke-width="9.652" marker-end="url(#heading-arrow)"/></g><g class="robot-snapshot" data-label="terminal" data-step="110" transform="translate(85.586 368.000) rotate(0.000) scale(0.207)"><rect class="body" x="-110.000" y="-70.000" width="220.000" height="140.000" rx="8.000" fill="#5b67a5" fill-opacity=".18" stroke="#35406f" stroke-width="7.239"/><rect class="wheel left" x="-11.000" y="-110.000" width="22.000" height="80.000" fill="#252525"/><rect class="wheel right" x="-11.000" y="30.000" width="22.000" height="80.000" fill="#252525"/><circle class="sensor" data-sensor="S1" cx="40.000" cy="40.000" r="6.000" fill="#21a7c7" fill-opacity=".50" stroke="#07566a" stroke-width="4.826"/><circle class="sensor" data-sensor="S2" cx="50.000" cy="0.000" r="6.000" fill="#21a7c7" fill-opacity=".50" stroke="#07566a" stroke-width="4.826"/><circle class="sensor" data-sensor="S3" cx="40.000" cy="-40.000" r="6.000" fill="#21a7c7" fill-opacity=".50" stroke="#07566a" stroke-width="4.826"/><circle class="sensor" data-sensor="S4" cx="0.000" cy="20.000" r="6.000" fill="#21a7c7" fill-opacity=".50" stroke="#07566a" stroke-width="4.826"/><circle class="sensor" data-sensor="S5" cx="0.000" cy="-20.000" r="6.000" fill="#21a7c7" fill-opacity=".50" stroke="#07566a" stroke-width="4.826"/><circle class="reference-origin" cx="0" cy="0" r="14.478" fill="#fff" stroke="#111" stroke-width="4.826"/><line class="heading" x1="0" y1="0" x2="154.000" y2="0" stroke="#111" stroke-width="9.652" marker-end="url(#heading-arrow)"/></g></g>
<g id="events"><g class="event off-track" data-event="off-track" data-step="110"><circle cx="85.586" cy="368.000" r="9.000" fill="#fff" stroke="#111" stroke-width="2"/><text x="85.586" y="372.000" text-anchor="middle" font-size="11" font-weight="700">×</text></g></g>
<g id="legend" font-family="sans-serif" font-size="11"><rect x="20" y="650" width="960" height="72" rx="6" fill="#fff" stroke="#d7d2c8"/><text x="34" y="671" font-weight="700">Legend</text><line x1="95" y1="667" x2="135" y2="667" stroke="#c4c7ca" stroke-width="10"/><text x="142" y="671">tape 25.0 mm</text><line x1="250" y1="667" x2="278" y2="667" stroke="#167d6b" stroke-width="3"/><text x="284" y="671">≤25%</text><line x1="342" y1="667" x2="370" y2="667" stroke="#d18b00" stroke-width="3"/><text x="376" y="671">25–75%</text><line x1="449" y1="667" x2="477" y2="667" stroke="#d1495b" stroke-width="3"/><text x="483" y="671">75–100%</text><line x1="570" y1="667" x2="598" y2="667" stroke="#721c24" stroke-width="3"/><text x="604" y="671">outside envelope</text><rect x="34" y="689" width="24" height="13" fill="#5b67a5" fill-opacity=".25" stroke="#35406f"/><text x="66" y="700">robot snapshots: start, 25%, 50%, 75%, terminal</text><text x="430" y="700">events: ! line loss · E controller · × off-track · T timeout · ✓ finish</text></g>
<g id="trial-metadata" font-family="sans-serif" font-size="10" fill="#555"><text x="24" y="744">track-view-svg-v1 · allowed centre-line error 60.000 mm · exact recorded poses</text></g>
</svg>